# xmcd
#
# Track frame offsets:
#	150
#	13867
#	27382
#	39520
#	53560
#	68690
#	80867
#	94262
#	107915
#	120210
#
# Disc length: 1758 seconds
#
# Revision: 1
# Processed by: cddbd v1.5PL3 Copyright (c) Steve Scherf et al.
# Submitted via: EasyCDDAExtractor 7.0.5.1
#
DISCID=7c06dc0a
DTITLE=John Lee Hooker - Compilation 1
DYEAR=1900
DGENRE=Blues
TTITLE0=Drifting From Door to Door
TTITLE1=She Left Me on Bended Knee
TTITLE2=Let Your Daddy Ride
TTITLE3=Turn' Over a New Leaf
TTITLE4=Don't You Remember
TTITLE5=Hug and Squeeze You
TTITLE6=I Love You Baby
TTITLE7=The Syndicate
TTITLE8=Boogie Woogie All Night Long
TTITLE9=Good Rockin Mama
EXTD=
EXTT0=
EXTT1=
EXTT2=
EXTT3=
EXTT4=
EXTT5=
EXTT6=
EXTT7=
EXTT8=
EXTT9=
PLAYORDER=
